<svg width="50" height="51" viewBox="0 0 50 51" fill="none" xmlns="http://www.w3.org/2000/svg">
<path d="M36.9552 18.4111C36.851 17.7142 36.5005 17.0777 35.9673 16.617C35.4341 16.1563 34.7535 15.9019 34.0488 15.8999H15.9512C15.2465 15.9019 14.5659 16.1563 14.0327 16.617C13.4995 17.0777 13.149 17.7142 13.0448 18.4111L25 26.1471L36.9552 18.4111Z" fill="#333333"/>
<path d="M25.4344 27.7721C25.305 27.8558 25.1541 27.9003 25 27.9003C24.8459 27.9003 24.695 27.8558 24.5656 27.7721L13 20.2889V32.1489C13.0008 32.9313 13.312 33.6815 13.8653 34.2348C14.4186 34.788 15.1688 35.0992 15.9512 35.1001H34.0488C34.8312 35.0992 35.5814 34.788 36.1347 34.2348C36.688 33.6815 36.9992 32.9313 37 32.1489V20.2881L25.4344 27.7721Z" fill="#333333"/>
</svg>
