<svg width="50" height="51" viewBox="0 0 50 51" fill="none" xmlns="http://www.w3.org/2000/svg">
<path d="M32.7711 39.8885C32.3767 39.8887 31.9882 39.7924 31.6396 39.6079L25.1633 36.204C25.1131 36.1772 25.057 36.1632 25.0001 36.1632C24.9432 36.1632 24.8872 36.1772 24.837 36.204L18.3617 39.6079C17.9604 39.8191 17.5081 39.9137 17.0558 39.8811C16.6036 39.8485 16.1694 39.69 15.8026 39.4235C15.4357 39.157 15.1508 38.7931 14.98 38.3731C14.8093 37.953 14.7594 37.4936 14.8362 37.0467L16.0727 29.8368C16.0822 29.7803 16.0777 29.7223 16.0596 29.668C16.0415 29.6136 16.0103 29.5646 15.9688 29.5251L10.7341 24.4161C10.4091 24.0995 10.1793 23.6981 10.0707 23.2576C9.96207 22.817 9.97902 22.3548 10.1196 21.9234C10.2602 21.492 10.5188 21.1085 10.8662 20.8166C11.2135 20.5246 11.6357 20.3357 12.0849 20.2714L19.3197 19.2209C19.376 19.2127 19.4295 19.1909 19.4754 19.1574C19.5214 19.1239 19.5586 19.0798 19.5836 19.0287L22.8182 12.4671C23.0185 12.0604 23.3287 11.7178 23.7137 11.4783C24.0987 11.2388 24.5431 11.1118 24.9965 11.1118C25.4499 11.1118 25.8943 11.2388 26.2793 11.4783C26.6643 11.7178 26.9745 12.0604 27.1749 12.4671L30.4115 19.0266C30.4367 19.0775 30.4739 19.1216 30.5199 19.155C30.5658 19.1885 30.6192 19.2104 30.6754 19.2188L37.9165 20.2703C38.3654 20.335 38.7873 20.5241 39.1344 20.8161C39.4815 21.1081 39.7399 21.4915 39.8804 21.9227C40.021 22.354 40.038 22.816 39.9297 23.2565C39.8213 23.6969 39.5918 24.0983 39.2672 24.4151L34.0273 29.5209C33.986 29.5605 33.9549 29.6096 33.9368 29.6639C33.9187 29.7182 33.9141 29.7761 33.9234 29.8326L35.1599 37.0425C35.2194 37.3909 35.2022 37.748 35.1096 38.0891C35.0171 38.4302 34.8513 38.747 34.6238 39.0175C34.3963 39.2879 34.1127 39.5056 33.7925 39.6553C33.4724 39.805 33.1235 39.8832 32.7701 39.8843L32.7711 39.8885ZM25.0001 34.0844C25.3942 34.0843 25.7823 34.1806 26.1306 34.3649L32.6059 37.7678C32.6632 37.8005 32.729 37.8156 32.7948 37.8109C32.8607 37.8063 32.9236 37.7822 32.9758 37.7418C33.0303 37.7045 33.0726 37.652 33.0975 37.5909C33.1224 37.5297 33.1289 37.4626 33.1161 37.3979L31.8786 30.1869C31.8125 29.7989 31.8415 29.4005 31.9631 29.0261C32.0847 28.6517 32.2953 28.3123 32.5768 28.0372L37.8167 22.9303C37.8635 22.8845 37.8965 22.8265 37.9121 22.7629C37.9277 22.6993 37.9252 22.6326 37.9049 22.5704C37.8845 22.5081 37.8472 22.4528 37.7971 22.4107C37.747 22.3685 37.6862 22.3412 37.6214 22.3318L30.3813 21.2792C29.9915 21.2228 29.6213 21.0723 29.3027 20.8408C28.9841 20.6092 28.7267 20.3036 28.5526 19.9503L25.3119 13.3898C25.2828 13.3311 25.238 13.2817 25.1823 13.2471C25.1267 13.2126 25.0625 13.1942 24.997 13.1942C24.9315 13.1942 24.8673 13.2126 24.8117 13.2471C24.7561 13.2817 24.7112 13.3311 24.6822 13.3898L21.4477 19.9482C21.2735 20.3017 21.0159 20.6074 20.6971 20.8389C20.3783 21.0705 20.0079 21.2209 19.6179 21.2772L12.3789 22.3318C12.314 22.341 12.2529 22.3682 12.2027 22.4104C12.1525 22.4526 12.1152 22.508 12.0949 22.5704C12.0747 22.6327 12.0723 22.6996 12.0882 22.7632C12.1041 22.8268 12.1375 22.8847 12.1846 22.9303L17.4235 28.0372C17.705 28.3123 17.9156 28.6517 18.0372 29.0261C18.1588 29.4005 18.1878 29.7989 18.1217 30.1869L16.8842 37.3979C16.873 37.4627 16.8802 37.5293 16.9049 37.5902C16.9297 37.6511 16.9711 37.7038 17.0244 37.7424C17.0776 37.7809 17.1406 37.8037 17.2062 37.8082C17.2718 37.8127 17.3374 37.7987 17.3954 37.7678L23.8697 34.3639C24.2182 34.1803 24.6062 34.0844 25.0001 34.0844Z" fill="white"/>
</svg>
