<svg width="50" height="51" viewBox="0 0 50 51" fill="none" xmlns="http://www.w3.org/2000/svg">
<path d="M36.3529 23.9388C36.3524 23.9383 36.3518 23.9377 36.3513 23.9372L26.5612 14.1475C26.1439 13.73 25.5891 13.5 24.9989 13.5C24.4088 13.5 23.854 13.7298 23.4365 14.1473L13.6515 23.9321C13.6482 23.9354 13.6449 23.9388 13.6416 23.9421C12.7847 24.804 12.7861 26.2024 13.6458 27.0621C14.0386 27.455 14.5573 27.6826 15.1119 27.7064C15.1345 27.7086 15.1572 27.7097 15.1801 27.7097H15.5703V34.9144C15.5703 36.34 16.7302 37.5 18.1563 37.5H21.9865C22.3746 37.5 22.6896 37.1852 22.6896 36.7969V31.1484C22.6896 30.4979 23.2188 29.9687 23.8693 29.9687H26.1285C26.7791 29.9687 27.3082 30.4979 27.3082 31.1484V36.7969C27.3082 37.1852 27.623 37.5 28.0114 37.5H31.8416C33.2676 37.5 34.4276 36.34 34.4276 34.9144V27.7097H34.7894C35.3793 27.7097 35.9342 27.4799 36.3518 27.0624C37.2124 26.2013 37.2128 24.8005 36.3529 23.9388Z" fill="#333333"/>
</svg>
