<svg width="50" height="51" viewBox="0 0 50 51" fill="none" xmlns="http://www.w3.org/2000/svg">
<path d="M35.0961 16.9133C33.8537 15.5659 32.149 14.8237 30.2956 14.8237C28.9102 14.8237 27.6415 15.2617 26.5245 16.1254C25.9609 16.5614 25.4503 17.0948 25 17.7173C24.5499 17.095 24.0391 16.5614 23.4753 16.1254C22.3585 15.2617 21.0898 14.8237 19.7044 14.8237C17.851 14.8237 16.1461 15.5659 14.9037 16.9133C13.6762 18.2451 13 20.0644 13 22.0364C13 24.0662 13.7564 25.9241 15.3804 27.8837C16.8331 29.6366 18.9211 31.416 21.339 33.4765C22.1646 34.1802 23.1005 34.9778 24.0722 35.8274C24.3289 36.0522 24.6583 36.176 25 36.176C25.3415 36.176 25.6711 36.0522 25.9274 35.8278C26.8992 34.978 27.8356 34.18 28.6616 33.476C31.0791 31.4158 33.1671 29.6366 34.6198 27.8835C36.2438 25.9241 37 24.0662 37 22.0363C37 20.0644 36.3238 18.2451 35.0961 16.9133Z" fill="#333333"/>
</svg>
