<svg width="50" height="51" viewBox="0 0 50 51" fill="none" xmlns="http://www.w3.org/2000/svg">
<path d="M15.2751 37.3498C14.6867 37.384 14.1081 37.1884 13.6611 36.8042C12.7797 35.9175 12.7797 34.4855 13.6611 33.5988L32.9614 14.2985C33.8781 13.4406 35.3167 13.4883 36.1745 14.4051C36.9502 15.2341 36.9955 16.5083 36.2804 17.3902L16.8664 36.8042C16.4252 37.1828 15.8558 37.3781 15.2751 37.3498Z" fill="#AE5D07"/>
<path d="M34.5527 37.3498C33.9564 37.3473 33.3848 37.1106 32.9614 36.6906L13.6611 17.3902C12.8445 16.4366 12.9555 15.0015 13.9091 14.1848C14.7602 13.456 16.0154 13.456 16.8664 14.1848L36.2804 33.4852C37.1969 34.3432 37.2443 35.7818 36.3862 36.6984C36.3521 36.7348 36.3168 36.7701 36.2804 36.8042C35.805 37.2176 35.1794 37.4152 34.5527 37.3498Z" fill="#AE5D07"/>
</svg>
